{
  "accessors": [
    {
      "bufferView": 2,
      "componentType": 5126,
      "count": 4,
      "max": [
        1.0,
        1.0,
        0.0
      ],
      "min": [
        -1.0,
        -1.0,
        0.0
      ],
      "type": "VEC3"
    },
    {
      "bufferView": 2,
      "byteOffset": 48,
      "componentType": 5126,
      "count": 4,
      "max": [
        0.0,
        0.0,
        1.0
      ],
      "min": [
        0.0,
        0.0,
        1.0
      ],
      "type": "VEC3"
    },
    {
      "bufferView": 1,
      "componentType": 5126,
      "count": 4,
      "max": [
        0.9998999834060669,
        0.9998999834060669
      ],
      "min": [
        9.999999747378752e-05,
        9.999999747378752e-05
      ],
      "type": "VEC2"
    },
    {
      "bufferView": 0,
      "componentType": 5125,
      "count": 6,
      "type": "SCALAR"
    },
    {
      "bufferView": 2,
      "byteOffset": 96,
      "componentType": 5126,
      "count": 1232,
      "max": [
        15.486459732055664,
        5.822519779205322,
        5.1661200523376465
      ],
      "min": [
        -13.354610443115234,
        -17.705610275268555,
        -0.3641299903392792
      ],
      "type": "VEC3"
    },
    {
      "bufferView": 2,
      "byteOffset": 14880,
      "componentType": 5126,
      "count": 1232,
      "max": [
        0.9708929061889648,
        0.9963245987892151,
        0.9991940855979919
      ],
      "min": [
        -0.9999147653579712,
        -0.9996898174285889,
        -0.9973243474960327
      ],
      "type": "VEC3"
    },
    {
      "bufferView": 1,
      "byteOffset": 32,
      "componentType": 5126,
      "count": 1232,
      "max": [
        0.6188200116157532,
        0.9955599904060364
      ],
      "min": [
        0.004050000105053186,
        0.002689999993890524
      ],
      "type": "VEC2"
    },
    {
      "bufferView": 0,
      "byteOffset": 24,
      "componentType": 5125,
      "count": 2856,
      "type": "SCALAR"
    },
    {
      "bufferView": 2,
      "byteOffset": 29664,
      "componentType": 5126,
      "count": 2134,
      "max": [
        12.308259963989258,
        3.238569974899292,
        7.658810138702393
      ],
      "min": [
        -17.997339248657227,
        -14.0614595413208,
        -0.2478799968957901
      ],
      "type": "VEC3"
    },
    {
      "bufferView": 2,
      "byteOffset": 55272,
      "componentType": 5126,
      "count": 2134,
      "max": [
        0.9993444085121155,
        0.9992462992668152,
        1.0
      ],
      "min": [
        -0.9999151229858398,
        -0.9999687075614929,
        -0.997326135635376
      ],
      "type": "VEC3"
    },
    {
      "bufferView": 1,
      "byteOffset": 9888,
      "componentType": 5126,
      "count": 2134,
      "max": [
        0.9973199963569641,
        0.9961000084877014
      ],
      "min": [
        0.0024300001095980406,
        0.0017399999778717756
      ],
      "type": "VEC2"
    },
    {
      "bufferView": 0,
      "byteOffset": 11448,
      "componentType": 5125,
      "count": 5478,
      "type": "SCALAR"
    }
  ],
  "asset": {
    "extras": {
      "author": "luyssport (https://sketchfab.com/luyssport)",
      "license": "CC-BY-NC-SA-4.0 (http://creativecommons.org/licenses/by-nc-sa/4.0/)",
      "source": "https://sketchfab.com/3d-models/plants-kit-6c2980169c1e44e499d94a67c1752477",
      "title": "Plants kit"
    },
    "generator": "Sketchfab-12.68.0",
    "version": "2.0"
  },
  "bufferViews": [
    {
      "buffer": 0,
      "byteLength": 33360,
      "name": "floatBufferViews",
      "target": 34963
    },
    {
      "buffer": 0,
      "byteLength": 26960,
      "byteOffset": 33360,
      "byteStride": 8,
      "name": "floatBufferViews",
      "target": 34962
    },
    {
      "buffer": 0,
      "byteLength": 80880,
      "byteOffset": 60320,
      "byteStride": 12,
      "name": "floatBufferViews",
      "target": 34962
    }
  ],
  "buffers": [
    {
      "byteLength": 141200,
      "uri": "scene.bin"
    }
  ],
  "images": [
    {
      "uri": "textures/plants_baseColor.jpeg"
    },
    {
      "uri": "textures/plants002_baseColor.jpeg"
    },
    {
      "uri": "textures/Material_baseColor.png"
    }
  ],
  "materials": [
    {
      "doubleSided": true,
      "name": "plants",
      "pbrMetallicRoughness": {
        "baseColorTexture": {
          "index": 0
        },
        "metallicFactor": 0.0
      }
    },
    {
      "doubleSided": true,
      "name": "plants002",
      "pbrMetallicRoughness": {
        "baseColorTexture": {
          "index": 1
        },
        "metallicFactor": 0.0
      }
    },
    {
      "alphaMode": "BLEND",
      "name": "Material",
      "pbrMetallicRoughness": {
        "baseColorFactor": [
          0.0,
          0.0,
          0.0,
          1.0
        ],
        "baseColorTexture": {
          "index": 2
        },
        "metallicFactor": 0.0
      }
    }
  ],
  "meshes": [
    {
      "name": "Plane_0",
      "primitives": [
        {
          "attributes": {
            "NORMAL": 1,
            "POSITION": 0,
            "TEXCOORD_0": 2
          },
          "indices": 3,
          "material": 2,
          "mode": 4
        }
      ]
    },
    {
      "name": "Plane.005_0",
      "primitives": [
        {
          "attributes": {
            "NORMAL": 5,
            "POSITION": 4,
            "TEXCOORD_0": 6
          },
          "indices": 7,
          "material": 1,
          "mode": 4
        }
      ]
    },
    {
      "name": "Plane.014_0",
      "primitives": [
        {
          "attributes": {
            "NORMAL": 9,
            "POSITION": 8,
            "TEXCOORD_0": 10
          },
          "indices": 11,
          "material": 0,
          "mode": 4
        }
      ]
    }
  ],
  "nodes": [
    {
      "children": [
        1
      ],
      "matrix": [
        1.0,
        0.0,
        0.0,
        0.0,
        0.0,
        2.220446049250313e-16,
        -1.0,
        0.0,
        0.0,
        1.0,
        2.220446049250313e-16,
        0.0,
        0.0,
        0.0,
        0.0,
        1.0
      ],
      "name": "Sketchfab_model"
    },
    {
      "children": [
        2,
        4,
        6,
        8,
        10
      ],
      "name": "Root"
    },
    {
      "children": [
        3
      ],
      "matrix": [
        -1.17394,
        3.85511,
        -0.22275000000000003,
        0.0,
        -3.11219,
        -0.8067400000000001,
        2.4398899999999997,
        0.0,
        2.2859900000000004,
        0.8814400000000001,
        3.2073300000000007,
        0.0,
        10.75309,
        -1.09747,
        17.972569999999997,
        1.0
      ],
      "name": "Lamp"
    },
    {
      "name": "Lamp"
    },
    {
      "children": [
        5
      ],
      "matrix": [
        0.29435000000000006,
        0.9551700000000001,
        -0.031720000000000005,
        0.0,
        0.56215,
        -0.19988000000000003,
        -0.80252,
        0.0,
        -0.77288,
        0.21839000000000003,
        -0.5957800000000001,
        0.0,
        -21.728239999999996,
        1.0054599999999998,
        -11.063550000000001,
        1.0
      ],
      "name": "Lamp.001"
    },
    {
      "name": "Lamp.001"
    },
    {
      "children": [
        7
      ],
      "matrix": [
        5.6857299999999995,
        -6.612469999999999,
        0.0,
        0.0,
        6.612469999999999,
        5.6857299999999995,
        0.0,
        0.0,
        0.0,
        0.0,
        8.72079,
        0.0,
        -0.015270000000000004,
        -1.34298,
        -0.020600000000000004,
        1.0
      ],
      "name": "Plane"
    },
    {
      "mesh": 0,
      "name": "Plane_0"
    },
    {
      "children": [
        9
      ],
      "matrix": [
        0.4627,
        0.0,
        0.0,
        0.0,
        0.0,
        0.4627,
        0.0,
        0.0,
        0.0,
        0.0,
        0.4627,
        0.0,
        -0.009740000000000004,
        0.0,
        0.07548,
        1.0
      ],
      "name": "Plane.005"
    },
    {
      "mesh": 1,
      "name": "Plane.005_0"
    },
    {
      "children": [
        11
      ],
      "matrix": [
        0.4627,
        0.0,
        0.0,
        0.0,
        0.0,
        0.4627,
        0.0,
        0.0,
        0.0,
        0.0,
        0.4627,
        0.0,
        -0.009740000000000004,
        0.0,
        0.07548,
        1.0
      ],
      "name": "Plane.014"
    },
    {
      "mesh": 2,
      "name": "Plane.014_0"
    }
  ],
  "samplers": [
    {
      "magFilter": 9729,
      "minFilter": 9987,
      "wrapS": 10497,
      "wrapT": 10497
    }
  ],
  "scene": 0,
  "scenes": [
    {
      "name": "Sketchfab_Scene",
      "nodes": [
        0
      ]
    }
  ],
  "textures": [
    {
      "sampler": 0,
      "source": 0
    },
    {
      "sampler": 0,
      "source": 1
    },
    {
      "sampler": 0,
      "source": 2
    }
  ]
}
